<mxfile host="app.diagrams.net" modified="2024-07-10T07:39:47.859Z" agent="Mozilla/5.0 (Windows NT 10.0; Win64; x64) AppleWebKit/537.36 (KHTML, like Gecko) Chrome/126.0.0.0 Safari/537.36" version="24.6.4" etag="W3CkLaBniwbvPQgpp3e9" type="github">
  <diagram name="第 1 页" id="L5qqYdbLE0RR6AGAil_s">
    <mxGraphModel>
      <root>
        <mxCell id="0" />
        <mxCell id="1" parent="0" />
      </root>
    </mxGraphModel>
  </diagram>
</mxfile>
